<?xml version="1.0" encoding="UTF-8" standalone="no"?>
<!-- Created with Inkscape (http://www.inkscape.org/) -->

<svg
   xmlns:dc="http://purl.org/dc/elements/1.1/"
   xmlns:cc="http://creativecommons.org/ns#"
   xmlns:rdf="http://www.w3.org/1999/02/22-rdf-syntax-ns#"
   xmlns:svg="http://www.w3.org/2000/svg"
   xmlns="http://www.w3.org/2000/svg"
   xmlns:sodipodi="http://sodipodi.sourceforge.net/DTD/sodipodi-0.dtd"
   xmlns:inkscape="http://www.inkscape.org/namespaces/inkscape"
   width="16"
   height="16"
   viewBox="0 0 16 16"
   id="svg2"
   version="1.1"
   inkscape:version="0.92.3 (2405546, 2018-03-11)"
   sodipodi:docname="more-results.svg">
  <defs
     id="defs4" />
  <sodipodi:namedview
     id="base"
     pagecolor="#ffffff"
     bordercolor="#666666"
     borderopacity="1.0"
     inkscape:pageopacity="0.0"
     inkscape:pageshadow="2"
     inkscape:zoom="22.627417"
     inkscape:cx="19.349949"
     inkscape:cy="14.420212"
     inkscape:document-units="px"
     inkscape:current-layer="layer1"
     showgrid="true"
     units="px"
     inkscape:window-width="1855"
     inkscape:window-height="1026"
     inkscape:window-x="65"
     inkscape:window-y="28"
     inkscape:window-maximized="1">
    <inkscape:grid
       type="xygrid"
       id="grid4136" />
  </sodipodi:namedview>
  <metadata
     id="metadata7">
    <rdf:RDF>
      <cc:Work
         rdf:about="">
        <dc:format>image/svg+xml</dc:format>
        <dc:type
           rdf:resource="http://purl.org/dc/dcmitype/StillImage" />
        <dc:title />
      </cc:Work>
    </rdf:RDF>
  </metadata>
  <g
     inkscape:label="Layer 1"
     inkscape:groupmode="layer"
     id="layer1"
     transform="translate(0,-1036.3622)">
    <circle
       style="fill:#315bef;fill-opacity:1;stroke:none"
       id="path4138"
       cx="8"
       cy="1044.3622"
       r="8" />
    <path
       style="fill:#ffffff;fill-opacity:1;stroke:none"
       d="M 7 4 L 7 7 L 4 7 L 4 9 L 7 9 L 7 12 L 9 12 L 9 9 L 12 9 L 12 7 L 9 7 L 9 4 L 7 4 z "
       transform="translate(0,1036.3622)"
       id="rect4136" />
    <path
       style="fill:#aad400;stroke:#000000;stroke-width:0.02209709;stroke-opacity:1"
       d="M 7.2856428,15.96151 C 5.6966276,15.813821 4.1985812,15.201894 2.9498085,14.190393 2.6151092,13.919288 2.0426852,13.341605 1.7671819,12.996902 0.91967655,11.936522 0.35567303,10.690248 0.12919381,9.3774529 0.0403145,8.8622606 0.02672585,8.6741099 0.02785426,7.9742878 0.02900345,7.2615772 0.04652879,7.0526601 0.1511219,6.5048316 0.58790932,4.2170651 2.0053772,2.2281985 4.0263225,1.0674902 6.5496032,-0.38172913 9.7019652,-0.33489418 12.176408,1.1885768 14.051272,2.3428974 15.385214,4.2388 15.823599,6.372249 c 0.116662,0.5677489 0.154203,0.9550196 0.1553,1.6020388 0.0011,0.6280635 -0.01762,0.8668641 -0.10952,1.3997391 -0.563312,3.2662971 -3.108504,5.8503651 -6.3785663,6.4759951 -0.4772719,0.09131 -0.7649777,0.117044 -1.3875777,0.124106 -0.3342184,0.0038 -0.7021349,-0.0019 -0.8175922,-0.01262 z M 9.0092156,10.504404 V 9.0018024 h 1.5026014 1.502602 V 7.9963849 6.9909675 H 10.511817 9.0092156 V 5.4883656 3.9857637 H 8.0037981 6.9983806 V 5.4883656 6.9909675 H 5.4957787 3.9931768 v 1.0054174 1.0054175 h 1.5026019 1.5026019 v 1.5026016 1.502602 h 1.0054175 1.0054175 z"
       id="path835"
       inkscape:connector-curvature="0"
       transform="translate(0,1036.3622)" />
    <path
       style="fill:#aad400;stroke:none;stroke-width:0.02209709"
       d="M 7.3003906,15.93884 C 6.7955849,15.902676 6.1083617,15.760677 5.5414245,15.575389 4.5404481,15.248246 3.5869586,14.71345 2.8218357,14.050017 2.5433087,13.808508 1.9872408,13.237364 1.7954879,12.995844 0.91697711,11.889323 0.37196483,10.672056 0.13583581,9.2890645 0.03102612,8.6752015 0.02532,7.3305475 0.12510132,6.7594676 0.37917237,5.3053387 0.9206115,4.0937077 1.8138695,2.9803462 2.0274153,2.7141817 2.5370756,2.1895749 2.8109827,1.9539913 c 2.7831272,-2.39372749 6.89574,-2.56482583 9.8548663,-0.4099951 1.835918,1.3369122 3.040783,3.414734 3.259194,5.6205649 0.03553,0.3588293 0.02864,1.4473587 -0.01121,1.7716098 -0.216872,1.7646051 -0.978686,3.3569361 -2.207907,4.6149321 -1.223287,1.251923 -2.745753,2.041194 -4.4805625,2.322797 -0.4569123,0.07417 -1.3674068,0.104884 -1.9249749,0.06494 z m 1.730922,-5.412339 V 9.0238995 h 1.5026024 1.502601 V 7.9963849 6.9688704 H 10.533915 9.0313126 V 5.4662685 3.9636666 H 8.0037981 6.9762836 V 5.4662685 6.9688704 H 5.4736817 3.9710797 v 1.0275145 1.0275146 h 1.502602 1.5026019 v 1.5026015 1.502602 h 1.0275145 1.0275145 z"
       id="path837"
       inkscape:connector-curvature="0"
       transform="translate(0,1036.3622)" />
    <path
       style="fill:#aad400;stroke:none;stroke-width:0.02209709"
       d="M 7.2745942,15.937626 C 6.627997,15.888333 5.7819608,15.686811 5.0869826,15.416545 4.8141362,15.31044 4.2616164,15.042559 3.9998924,14.889487 3.7126877,14.721512 3.2872282,14.431188 3.0239951,14.223557 2.7515439,14.008656 1.9965203,13.253282 1.777204,12.976188 0.91590314,11.887982 0.36815108,10.658236 0.13488936,9.2890645 0.03666885,8.7125416 0.0246311,7.3478211 0.11315677,6.8252393 0.33878767,5.4933025 0.78585927,4.3951754 1.5255614,3.3559967 1.8919545,2.8412654 2.5256569,2.1733694 3.0319536,1.7683221 5.8447611,-0.48197963 9.8767631,-0.54749836 12.754931,1.6103268 c 0.817566,0.6129476 1.466898,1.3198385 2.022575,2.2018651 0.207736,0.3297385 0.56487,1.0583026 0.70326,1.4346686 0.211684,0.5756999 0.364814,1.2210459 0.434638,1.8317299 0.0294,0.2571537 0.03464,0.4666681 0.0268,1.0717087 -0.009,0.6956952 -0.01426,0.7777388 -0.07006,1.0945712 -0.158496,0.9000847 -0.395518,1.6308177 -0.763332,2.3533397 -1.175336,2.308789 -3.385833,3.901372 -5.9513226,4.287711 -0.4424871,0.06663 -1.3574733,0.09176 -1.8829012,0.05171 z M 9.0313126,10.526501 V 9.0238995 h 1.5026024 1.502601 V 7.9963849 6.9688704 H 10.533915 9.0313126 V 5.4662685 3.9636666 H 8.0037981 6.9762836 V 5.4662685 6.9688704 H 5.4736817 3.9710797 v 1.0275145 1.0275146 h 1.502602 1.5026019 v 1.5026015 1.502602 h 1.0275145 1.0275145 z"
       id="path839"
       inkscape:connector-curvature="0"
       transform="translate(0,1036.3622)" />
    <path
       style="fill:#a0a0a0;stroke:none;stroke-width:0.02209709"
       d="M 7.2566499,15.94003 C 5.7705505,15.805655 4.2467513,15.188939 3.0319536,14.230201 2.7495727,14.007341 1.9981999,13.255677 1.7704718,12.968229 0.9123201,11.885038 0.37002067,10.665266 0.13474745,9.2890645 0.02662836,8.656635 0.02204497,7.3729671 0.12567412,6.7478995 0.21291251,6.2216974 0.40329791,5.5347056 0.6002644,5.0353753 0.69586517,4.7930175 0.97125303,4.2308261 1.1111242,3.9924792 1.4936112,3.3407031 1.870868,2.8620296 2.4607383,2.2800524 5.0985741,-0.32248631 9.3058482,-0.70945354 12.411478,1.3648255 c 0.445772,0.2977354 0.810389,0.5994752 1.216286,1.006542 0.677067,0.6790176 1.111028,1.2858801 1.534661,2.1461106 0.360487,0.7320062 0.580441,1.4295498 0.721714,2.2887827 0.03876,0.2357543 0.04856,0.4115593 0.05754,1.0323346 0.01387,0.9586321 -0.0219,1.317857 -0.205994,2.0691875 -0.641886,2.6196401 -2.59036,4.7499251 -5.146529,5.6267501 -0.527535,0.180956 -1.0963127,0.313596 -1.6020385,0.373596 -0.3309634,0.03927 -1.4258044,0.05945 -1.7304686,0.0319 z M 9.0313126,10.526501 V 9.0238995 h 1.5026024 1.502601 V 7.9963849 6.9688704 H 10.533915 9.0313126 V 5.4662685 3.9636666 H 8.0037981 6.9762836 V 5.4662685 6.9688704 H 5.4736817 3.9710797 v 1.0275145 1.0275146 h 1.502602 1.5026019 v 1.5026015 1.502602 h 1.0275145 1.0275145 z"
       id="path841"
       inkscape:connector-curvature="0"
       transform="translate(0,1036.3622)" />
    <path
       style="fill:#a0a0a0;stroke:none;stroke-width:0.02209709"
       d="M 7.1862059,15.925383 C 6.6328526,15.85624 6.1926179,15.766248 5.7388467,15.629514 4.7966757,15.345611 3.819526,14.839151 3.068149,14.24528 2.7962298,14.030362 1.9744836,13.209168 1.7570711,12.935084 0.93347238,11.896801 0.36807161,10.620289 0.15038321,9.3076459 0.08150605,8.8923224 0.05224312,8.3334028 0.06726898,7.7201713 0.08250519,7.0983558 0.10412511,6.8807759 0.19352094,6.4495888 0.32323908,5.8239134 0.51173993,5.2398907 0.75489995,4.7102966 1.2172504,3.7033132 1.8015767,2.9017661 2.6429666,2.1203494 3.9033515,0.94980305 5.528889,0.23612785 7.3045844,0.07371492 7.6802996,0.03935036 8.680479,0.05826856 9.0202641,0.10616667 11.05952,0.39363213 12.756193,1.3220641 14.090576,2.8806791 c 0.756045,0.8830921 1.35065,2.0513614 1.635933,3.214253 0.174262,0.7103359 0.182734,0.7868499 0.193572,1.7482053 0.01115,0.9889238 -0.008,1.2389963 -0.140223,1.8310457 -0.409807,1.8350059 -1.367201,3.3794419 -2.818525,4.5467479 -1.199087,0.96443 -2.799241,1.603312 -4.2504281,1.697039 -0.3126413,0.02019 -1.3808598,0.02539 -1.524699,0.0074 z M 9.0313126,10.526501 V 9.0238995 h 1.5026024 1.502601 V 7.9963849 6.9688704 H 10.533915 9.0313126 V 5.4662685 3.9636666 H 8.0037981 6.9762836 V 5.4662685 6.9688704 H 5.4736817 3.9710797 v 1.0275145 1.0275146 h 1.502602 1.5026019 v 1.5026015 1.502602 h 1.0275145 1.0275145 z"
       id="path845"
       inkscape:connector-curvature="0"
       transform="translate(0,1036.3622)" />
    <path
       style="fill:#a0a0a0;stroke:none;stroke-width:0.02209709"
       d="M 6.9983806,15.906202 C 5.6189612,15.712684 4.2988465,15.169884 3.183357,14.337554 2.8275752,14.072085 1.933747,13.179003 1.6691365,12.824598 1.1322524,12.105525 0.756767,11.403825 0.48136064,10.604906 0.29390385,10.061117 0.17475081,9.5643069 0.1127778,9.0680936 0.06641595,8.6968778 0.04896576,7.7395827 0.08020725,7.2813157 0.17106856,5.9485131 0.72312226,4.4670702 1.5509629,3.3345249 2.1764223,2.4788515 3.0475417,1.6782159 3.9102825,1.1661021 4.8579379,0.60358373 5.7903468,0.28151445 6.9873321,0.10323881 7.3689545,0.04640104 8.6350149,0.04665642 9.0202641,0.10364887 10.324849,0.29664481 11.384374,0.69318965 12.408905,1.3719042 c 0.51369,0.340301 1.073131,0.8311694 1.55611,1.365374 0.829265,0.9172183 1.46135,2.1267563 1.771508,3.3899051 0.172132,0.7010203 0.178032,0.7629713 0.178032,1.8692016 0,1.117885 -0.0063,1.1811538 -0.190306,1.91533 -0.790832,3.1551471 -3.336786,5.4663691 -6.5714024,5.9655321 -0.3915809,0.06043 -1.7956179,0.0793 -2.154466,0.02895 z m 2.032932,-5.379701 V 9.0238995 h 1.5026024 1.502601 V 7.9963849 6.9688704 H 10.533915 9.0313126 V 5.4662685 3.9636666 H 8.0037981 6.9762836 V 5.4662685 6.9688704 H 5.4736817 3.9710797 v 1.0275145 1.0275146 h 1.502602 1.5026019 v 1.5026015 1.502602 h 1.0275145 1.0275145 z"
       id="path847"
       inkscape:connector-curvature="0"
       transform="translate(0,1036.3622)" />
    <path
       style="fill:#a0a0a0;stroke:none;stroke-width:0.02209709"
       d="M 7.1309632,15.924931 C 6.9058431,15.900819 6.4598419,15.817315 6.1434981,15.74005 4.9606417,15.451147 3.7293321,14.829572 2.8892002,14.097255 2.5908884,13.837226 1.9026073,13.127615 1.7177698,12.889522 0.78277858,11.68514 0.18147152,10.157969 0.08261698,8.7366373 0.05369513,8.3207987 0.05378698,7.5872673 0.08280805,7.2108311 0.16353704,6.1636846 0.5590212,4.9491653 1.144741,3.9496683 1.7084994,2.9876475 2.6036073,2.0356071 3.5427545,1.3991314 4.3514152,0.85108847 5.3115186,0.43948816 6.2691768,0.23030261 6.9451872,0.08263866 7.131874,0.06487023 8.0037981,0.06520531 c 0.7133092,2.7412e-4 0.8285979,0.0054264 1.1159029,0.04987007 1.464093,0.22648277 2.748519,0.78315528 3.854945,1.67074042 0.29123,0.2336275 0.858521,0.7893894 1.119321,1.0965731 0.892324,1.0510243 1.511625,2.3861422 1.769305,3.8143497 0.04843,0.2684102 0.0511,0.3350444 0.05119,1.2775492 1.1e-4,1.1283332 -0.0066,1.199629 -0.176029,1.8827452 -0.398812,1.607561 -1.209581,2.972746 -2.409235,4.056708 -1.257388,1.136127 -2.975003,1.888568 -4.5742846,2.003869 -0.2875878,0.02073 -1.4498062,0.02597 -1.6239482,0.0073 z m 1.9003494,-5.39843 V 9.0238995 h 1.5026024 1.502601 V 7.9963849 6.9688704 H 10.533915 9.0313126 V 5.4662685 3.9636666 H 8.0037981 6.9762836 V 5.4662685 6.9688704 H 5.4736817 3.9710797 v 1.0275145 1.0275146 h 1.502602 1.5026019 v 1.5026015 1.502602 h 1.0275145 1.0275145 z"
       id="path849"
       inkscape:connector-curvature="0"
       transform="translate(0,1036.3622)" />
    <path
       style="fill:#a0a0a0;stroke:none;stroke-width:0.02209709"
       d="M 7.1088661,15.924777 C 6.9164579,15.903786 6.3731436,15.80115 6.1289716,15.739668 5.0180278,15.459936 3.8767795,14.902378 3.0432025,14.232112 2.8274735,14.058648 1.9409163,13.170871 1.7700234,12.957181 0.80364486,11.748791 0.18887477,10.208418 0.08022883,8.7232184 0.0474785,8.2755186 0.06623296,7.2008626 0.11238751,6.880482 0.20072996,6.2672552 0.40531572,5.523652 0.6443453,4.9469869 0.89417596,4.3442641 1.3442643,3.5764503 1.7339209,3.0882602 3.0155465,1.4825464 4.6986745,0.48655877 6.711638,0.14270588 7.0941956,0.07735767 7.4433526,0.05292537 7.9927496,0.05305992 8.5819894,0.05320421 8.9068603,0.07719836 9.3406719,0.15261394 10.944672,0.43145989 12.350505,1.142744 13.496746,2.2553874 c 0.728389,0.7070392 1.139063,1.2555974 1.574259,2.1028169 0.391485,0.7621268 0.625105,1.4530817 0.800511,2.3675981 0.0483,0.2518023 0.0715,1.8180093 0.03304,2.2298336 -0.02807,0.3004996 -0.0973,0.6623828 -0.202471,1.058265 -0.469731,1.768204 -1.498086,3.292169 -2.950194,4.372022 -1.163208,0.865014 -2.647638,1.435967 -3.9839346,1.532334 -0.2815764,0.02031 -1.4892268,0.02505 -1.6590873,0.0065 z M 9.0313126,10.526501 V 9.0238995 h 1.5026024 1.502601 V 7.9963849 6.9688704 H 10.533915 9.0313126 V 5.4662685 3.9636666 H 8.0037981 6.9762836 V 5.4662685 6.9688704 H 5.4736817 3.9710797 v 1.0275145 1.0275146 h 1.502602 1.5026019 v 1.5026015 1.502602 h 1.0275145 1.0275145 z"
       id="path851"
       inkscape:connector-curvature="0"
       transform="translate(0,1036.3622)" />
    <path
       style="fill:#a0a0a0;stroke:none;stroke-width:0.02209709"
       d="M 6.8989438,15.895808 C 6.384985,15.817193 5.9510296,15.709673 5.4392679,15.534149 4.5310438,15.222645 3.5721091,14.688157 2.9253656,14.132956 2.5812636,13.837559 1.8464733,13.068499 1.6261092,12.773104 0.92786463,11.837116 0.43727061,10.750523 0.20225099,9.6194677 0.1057581,9.1550863 0.08038154,8.8900205 0.06695949,8.2063072 0.04774942,7.2277548 0.09114157,6.7894615 0.27986066,6.0558453 0.44596524,5.4101394 0.61184223,4.9735951 0.92602653,4.3553083 1.7400559,2.7533704 3.1504631,1.4217912 4.788672,0.70854684 5.5589232,0.3731944 6.45531,0.14274431 7.2624039,0.07258058 7.7062387,0.03399635 8.7619726,0.0581479 9.1307495,0.11532188 10.564279,0.33757166 11.768354,0.85132781 12.898303,1.722866 c 0.301336,0.232423 1.090484,1.0118554 1.329085,1.3127229 0.778448,0.9815939 1.303691,2.1063639 1.584635,3.3933807 0.100503,0.4604116 0.119378,0.7663511 0.107742,1.7463648 -0.01134,0.9553616 -0.02125,1.0515482 -0.170419,1.6551087 -0.166781,0.6748129 -0.348322,1.1669539 -0.652093,1.7677669 -0.411891,0.814656 -0.897813,1.476498 -1.550093,2.11128 -1.144079,1.113387 -2.647291,1.87764 -4.211854,2.141365 -0.4060762,0.06845 -0.7526873,0.08858 -1.4972361,0.08697 -0.5371492,-0.0012 -0.7277887,-0.0097 -0.9391261,-0.04202 z M 9.0313126,10.526501 V 9.0238995 h 1.5026024 1.502601 V 7.9963849 6.9688704 H 10.533915 9.0313126 V 5.4662685 3.9636666 H 8.0037981 6.9762836 V 5.4662685 6.9688704 H 5.4736817 3.9710797 v 1.0275145 1.0275146 h 1.502602 1.5026019 v 1.5026015 1.502602 h 1.0275145 1.0275145 z"
       id="path853"
       inkscape:connector-curvature="0"
       transform="translate(0,1036.3622)" />
    <path
       style="fill:#a0a0a0;stroke:none;stroke-width:0.02209709"
       d="M 7.0147641,15.915474 C 6.7366155,15.879673 6.1772067,15.761318 5.8713238,15.673555 4.908765,15.397382 3.9834842,14.9401 3.1976817,14.352219 2.9279567,14.15043 2.1836657,13.436304 1.8800514,13.087991 0.90704332,11.971735 0.20162017,10.289602 0.08352215,8.8040359 0.05404371,8.4332238 0.05340842,7.5092951 0.08238945,7.1566956 0.1586272,6.2291445 0.499485,5.1351969 1.0040377,4.1987612 1.8336208,2.6590782 3.2333515,1.3734757 4.8218176,0.69226712 5.5719087,0.37059302 6.4696413,0.141162 7.2472416,0.0724084 7.6398564,0.0376943 8.7852382,0.0585254 9.0865554,0.10586007 10.588742,0.34184219 11.857891,0.88756533 12.963741,1.7730162 c 0.29935,0.239688 0.916139,0.8493373 1.187936,1.1741844 0.750371,0.8968299 1.306247,2.0181402 1.604814,3.2372232 0.157845,0.6444978 0.157705,0.6429032 0.157893,1.789864 1.99e-4,1.1628422 -0.0039,1.2086621 -0.167838,1.8737351 -0.47434,1.9244671 -1.582264,3.5544011 -3.175353,4.6714481 -1.114501,0.78147 -2.503331,1.296531 -3.7695844,1.397986 -0.3366081,0.02697 -1.5725633,0.0256 -1.7868445,-0.002 z M 9.0313126,10.526501 V 9.0238995 h 1.5026024 1.502601 V 7.9963849 6.9688704 H 10.533915 9.0313126 V 5.4662685 3.9636666 H 8.0037981 6.9762836 V 5.4662685 6.9688704 H 5.4736817 3.9710797 v 1.0275145 1.0275146 h 1.502602 1.5026019 v 1.5026015 1.502602 h 1.0275145 1.0275145 z"
       id="path855"
       inkscape:connector-curvature="0"
       transform="translate(0,1036.3622)" />
    <path
       style="fill:#aad400;stroke:none;stroke-width:0.02209709"
       d="M 6.9426027,15.907675 C 5.5852722,15.700811 4.2803948,15.160307 3.2042258,14.359172 2.8776697,14.116073 1.9181194,13.163357 1.6697712,12.835647 0.84501408,11.74733 0.30093797,10.451975 0.11404233,9.1317129 0.06614611,8.7933661 0.0453663,7.5980164 0.08013694,7.1813197 0.1569282,6.261041 0.4538632,5.2655573 0.9268016,4.3428504 1.6702917,2.8922946 2.9166061,1.6473915 4.3688273,0.90472235 5.214042,0.47247772 6.2819562,0.16040132 7.208303,0.07494291 7.5166727,0.04649482 8.4300931,0.04647031 8.7771961,0.07490092 10.109945,0.18406365 11.599416,0.7513367 12.702018,1.5696899 c 0.475951,0.353252 1.179485,1.0303723 1.534562,1.4769476 0.823738,1.0360046 1.378815,2.2793931 1.637531,3.6681164 0.04538,0.2435826 0.06714,1.8707889 0.03027,2.2629892 -0.05331,0.5669973 -0.237659,1.2844859 -0.50297,1.9575539 -1.031848,2.617706 -3.398631,4.503273 -6.2043682,4.94289 -0.2454794,0.03846 -0.4158243,0.04609 -1.1711456,0.05244 -0.6703246,0.0056 -0.9320635,8.9e-5 -1.0832925,-0.02296 z M 9.0313126,10.526501 V 9.0238995 h 1.5026024 1.502601 V 7.9963849 6.9688704 H 10.533915 9.0313126 V 5.4662685 3.9636666 H 8.0037981 6.9762836 V 5.4662685 6.9688704 H 5.4736817 3.9710797 v 1.0275145 1.0275146 h 1.502602 1.5026019 v 1.5026015 1.502602 h 1.0275145 1.0275145 z"
       id="path857"
       inkscape:connector-curvature="0"
       transform="translate(0,1036.3622)" />
  </g>
</svg>
