<?xml version="1.0" encoding="UTF-8" standalone="no"?>
<svg
   xmlns:dc="http://purl.org/dc/elements/1.1/"
   xmlns:cc="http://creativecommons.org/ns#"
   xmlns:rdf="http://www.w3.org/1999/02/22-rdf-syntax-ns#"
   xmlns:svg="http://www.w3.org/2000/svg"
   xmlns="http://www.w3.org/2000/svg"
   xmlns:sodipodi="http://sodipodi.sourceforge.net/DTD/sodipodi-0.dtd"
   xmlns:inkscape="http://www.inkscape.org/namespaces/inkscape"
   fill="#000000"
   height="24"
   viewBox="0 0 24 24"
   width="24"
   id="svg2"
   version="1.1"
   inkscape:version="0.92.3 (2405546, 2018-03-11)"
   sodipodi:docname="checkbox.svg">
  <sodipodi:namedview
     pagecolor="#ffffff"
     bordercolor="#666666"
     borderopacity="1"
     objecttolerance="10"
     gridtolerance="10"
     guidetolerance="10"
     inkscape:pageopacity="0"
     inkscape:pageshadow="2"
     inkscape:window-width="1855"
     inkscape:window-height="1026"
     id="namedview8"
     showgrid="true"
     inkscape:zoom="11.313709"
     inkscape:cx="-4.9333129"
     inkscape:cy="3.7829049"
     inkscape:window-x="65"
     inkscape:window-y="28"
     inkscape:window-maximized="1"
     inkscape:current-layer="svg2">
    <inkscape:grid
       id="grid4140"
       type="xygrid" />
  </sodipodi:namedview>
  <metadata
     id="metadata12">
    <rdf:RDF>
      <cc:Work
         rdf:about="">
        <dc:format>image/svg+xml</dc:format>
        <dc:type
           rdf:resource="http://purl.org/dc/dcmitype/StillImage" />
        <dc:title />
      </cc:Work>
    </rdf:RDF>
  </metadata>
  <defs
     id="defs10" />
  <path
     style="fill:#3bee31;fill-opacity:1;opacity:1"
     id="path6"
     d="M19 3H5c-1.11 0-2 .9-2 2v14c0 1.1.89 2 2 2h14c1.11 0 2-.9 2-2V5c0-1.1-.89-2-2-2zm-9 14l-5-5 1.41-1.41L10 14.17l7.59-7.59L19 8l-9 9z" />
  <path
     style="fill:#aad400"
     d="M 4.5819145,20.912768 C 3.9401178,20.753709 3.2918271,20.167561 3.1356511,19.605138 3.0062049,19.138974 3.01311,4.8138992 3.1429899,4.3803988 3.271953,3.9499581 3.7134469,3.4499018 4.151916,3.2376425 4.5067666,3.0658623 4.573866,3.0643828 11.97309,3.0651865 l 7.463254,8.108e-4 0.430728,0.2005441 c 0.48117,0.2240294 0.885874,0.7048372 1.02351,1.2159813 0.05516,0.2048276 0.07668,2.8725425 0.062,7.6841273 l -0.02249,7.370375 -0.179118,0.331942 c -0.209588,0.388412 -0.534669,0.707596 -0.941188,0.924115 -0.276532,0.147286 -0.642356,0.155338 -7.634679,0.168043 -4.0393255,0.0073 -7.4562592,-0.01442 -7.5931855,-0.04836 z m 9.9372445,-8.366995 c 2.45342,-2.453104 4.460764,-4.4984875 4.460764,-4.5452957 0,-0.046808 -0.309244,-0.3927427 -0.687208,-0.7687433 L 17.605509,6.5480968 13.811624,10.344954 10.017741,14.141811 8.2120274,12.337496 6.406314,10.533182 5.6807866,11.25871 4.9552592,11.984237 7.4651099,14.4951 c 1.3804179,1.380974 2.5286235,2.510863 2.5515681,2.510863 0.02294,0 2.049061,-2.007086 4.502481,-4.46019 z"
     id="path4692"
     inkscape:connector-curvature="0" />
  <path
     style="fill:#aad400;stroke-width:0.08298564"
     d="M 4.2914648,20.775467 C 3.9476257,20.625605 3.4206852,20.135688 3.2272026,19.785982 3.1015922,19.55895 3.0899924,18.875631 3.0954854,12.026825 3.0997865,6.6641222 3.1282049,4.4526095 3.1948697,4.2927522 3.3369607,3.9520283 3.8829187,3.3864477 4.2084792,3.2427121 4.4614369,3.1310306 5.4585019,3.110137 11.932722,3.0808493 l 7.433793,-0.033629 0.408349,0.2083034 c 0.224593,0.1145669 0.509064,0.3144804 0.632158,0.4442522 0.503664,0.5309847 0.48157,0.1461069 0.48157,8.3889051 0,8.333465 0.04736,7.600335 -0.531201,8.22304 -0.551658,0.593749 0.06585,0.551038 -8.265276,0.571706 -6.5769075,0.01632 -7.5462946,0.0029 -7.8006502,-0.10796 z M 14.519159,12.545773 c 2.45342,-2.453104 4.460764,-4.4984875 4.460764,-4.5452957 0,-0.046808 -0.317164,-0.400622 -0.704808,-0.7862526 L 17.570307,6.5130781 13.800701,10.328018 10.031096,14.142958 8.2187049,12.338071 6.406314,10.533182 5.6807866,11.25871 4.9552592,11.984237 7.4651099,14.4951 c 1.3804179,1.380974 2.5286235,2.510863 2.5515681,2.510863 0.02294,0 2.049061,-2.007086 4.502481,-4.46019 z"
     id="path4694"
     inkscape:connector-curvature="0" />
  <path
     style="fill:#aad400"
     d="M 4.2481304,20.752159 C 3.8648871,20.576751 3.4381309,20.176392 3.2309751,19.797922 3.0988847,19.556595 3.0882944,18.983021 3.0897912,12.151303 3.0906812,8.0891562 3.1195858,4.6297817 3.1540238,4.4638043 3.231714,4.0893676 3.8076982,3.4196437 4.204784,3.2420361 4.4645023,3.1258699 5.3693094,3.1069386 11.935561,3.0802849 l 7.436632,-0.030187 0.40551,0.2068647 c 0.223032,0.1137756 0.506225,0.3130416 0.629319,0.4428134 0.503608,0.5309248 0.48157,0.1478415 0.48157,8.371331 0,5.378777 -0.02641,7.569905 -0.0928,7.699584 -0.13767,0.268912 -0.660286,0.797723 -0.944523,0.955719 -0.226509,0.125906 -0.926158,0.140195 -7.759157,0.158453 -7.1417334,0.01908 -7.5265767,0.01257 -7.8439846,-0.132704 z m 10.0459356,-7.99921 c 2.328972,-2.339158 4.341782,-4.3730708 4.472913,-4.519807 L 19.005398,7.966349 18.311244,7.2551808 17.61709,6.5440127 13.817467,10.342963 10.017843,14.141913 8.2120785,12.337548 6.406314,10.533182 5.6807866,11.25871 4.9552592,11.984237 7.4651099,14.4951 c 1.3804179,1.380974 2.528888,2.510863 2.5521561,2.510863 0.02327,0 1.947828,-1.913856 4.2768,-4.253014 z"
     id="path4696"
     inkscape:connector-curvature="0" />
  <path
     style="fill:#aad400;stroke-width:0.0051866"
     d="m 7.7185485,20.979314 v -0.01686 l 3.1469705,-5.55e-4 c 5.050262,-8.92e-4 7.252859,-0.0136 8.12222,-0.04685 l 0.08947,-0.0034 v 0.04227 0.04227 h -5.67933 -5.6793295 z"
     id="path4704"
     inkscape:connector-curvature="0" />
  <path
     style="fill:#aad400;stroke-width:0.00390625"
     d="m 20.956642,9.7321896 c 0,-1.2767089 -0.0015,-2.4263183 -0.0032,-2.5546875 l -0.0032,-0.2333984 h 0.02375 0.02375 v 2.5546875 2.5546878 h -0.02051 -0.02051 z"
     id="path4706"
     inkscape:connector-curvature="0" />
  <path
     style="fill:#aad400;stroke-width:0.00390625"
     d="m 20.950743,6.8259396 c -9.3e-5,-0.2797422 -0.01167,-1.1957434 -0.01955,-1.5478515 -0.0115,-0.5134789 -0.02337,-0.7367225 -0.04292,-0.8078128 l -0.0073,-0.026563 0.02023,0.00117 0.02023,0.00117 0.01624,0.065155 c 0.02836,0.1137701 0.04727,0.2329547 0.05598,0.3528135 0.0025,0.034996 0.004,0.4193315 0.004,1.0673828 l 1.6e-5,1.0126953 h -0.02344 -0.02344 l -3.9e-5,-0.1181641 z"
     id="path4708"
     inkscape:connector-curvature="0" />
  <path
     style="fill:#aad400;stroke-width:0.00390625"
     d="M 20.867206,4.4007974 C 20.740753,4.0085206 20.450173,3.6310582 20.089455,3.3905011 c -0.09753,-0.065043 -0.144869,-0.08943 -0.441792,-0.2276097 -0.170314,-0.079259 -0.213051,-0.097694 -0.226481,-0.097694 -0.01011,0 -0.02401,-0.00387 -0.0357,-0.00993 l -0.01915,-0.00993 -0.784927,0.00394 c -0.431709,0.00217 -1.035854,0.00513 -1.342543,0.00659 l -0.557617,0.00265 v -0.027906 -0.027906 l 1.206054,5.25e-5 c 1.292309,5.63e-5 1.263046,-3.506e-4 1.399747,0.019462 0.204557,0.029648 0.394284,0.087731 0.579746,0.1774847 0.203305,0.098389 0.369376,0.2151667 0.530653,0.3731434 0.20582,0.2016085 0.362506,0.4384135 0.465573,0.7036367 0.01688,0.043427 0.05651,0.1598844 0.05651,0.1660472 0,8.688e-4 -0.0086,0.00158 -0.01918,0.00158 h -0.01918 z"
     id="path4710"
     inkscape:connector-curvature="0" />
  <path
     style="fill:#aad400;stroke-width:0.00390625"
     d="m 16.492775,3.0583685 c 0.03491,-6.474e-4 0.09204,-6.474e-4 0.126953,0 0.03491,6.474e-4 0.0063,0.00118 -0.06348,0.00118 -0.06983,0 -0.09839,-5.297e-4 -0.06348,-0.00118 z"
     id="path4712"
     inkscape:connector-curvature="0" />
  <path
     style="fill:#aad400;stroke-width:0.00390625"
     d="m 11.583595,3.0344425 v -0.031745 h 2.548829 2.548828 v 0.026877 0.026877 l -0.151367,0.00239 c -0.08325,0.00132 -1.230225,0.00351 -2.548829,0.00487 l -2.397461,0.00248 z"
     id="path4714"
     inkscape:connector-curvature="0" />
  <path
     style="fill:#aad400;stroke-width:0.00390625"
     d="m 16.604103,3.0583945 c 0.0145,-7.516e-4 0.03823,-7.516e-4 0.05274,0 0.0145,7.516e-4 0.0026,0.00137 -0.02637,0.00137 -0.029,0 -0.04087,-6.149e-4 -0.02637,-0.00137 z"
     id="path4716"
     inkscape:connector-curvature="0" />
  <path
     style="fill:#aad400;stroke-width:0.00390625"
     d="m 19.077288,20.953624 v -0.04244 l 0.0498,-0.0027 c 0.306219,-0.0163 0.476313,-0.03743 0.582844,-0.07241 0.124911,-0.04102 0.337439,-0.173935 0.516158,-0.322813 0.113326,-0.0944 0.258513,-0.247414 0.348095,-0.366851 0.09017,-0.120217 0.126506,-0.180674 0.278688,-0.463649 0.032,-0.0595 0.05885,-0.10751 0.05967,-0.106691 0.0025,0.0025 -0.02636,0.08661 -0.0545,0.158507 -0.02874,0.07343 -0.08512,0.191051 -0.124695,0.260123 -0.152333,0.265878 -0.373352,0.501148 -0.630674,0.671342 -0.08492,0.05616 -0.126349,0.07991 -0.222222,0.127344 -0.225894,0.11177 -0.465477,0.177628 -0.722327,0.198558 -0.02751,0.0022 -0.05695,0.0041 -0.06543,0.0041 h -0.01541 z"
     id="path4718"
     inkscape:connector-curvature="0" />
  <path
     style="fill:#aad400;stroke-width:0.01104854"
     d="m 20.935609,18.56626 c 0.0037,-0.504366 0.0099,-2.176149 0.01375,-3.715073 0.0068,-2.732035 0.0075,-2.798043 0.02783,-2.798043 0.02039,0 0.02077,0.07808 0.01741,3.58249 l -0.0034,3.58249 -0.02451,0.126273 c -0.01348,0.06945 -0.02751,0.129113 -0.03117,0.132583 -0.0037,0.0035 -0.0036,-0.406354 1.1e-4,-0.91072 z"
     id="path4720"
     inkscape:connector-curvature="0" />
  <path
     style="fill:#aad400;stroke-width:0.01104854"
     d="m 5.2728324,3.0847824 c 0.019749,-0.00245 0.052066,-0.00245 0.071816,0 0.019749,0.00245 0.00359,0.00446 -0.035908,0.00446 -0.039499,0 -0.055657,-0.00201 -0.035908,-0.00446 z"
     id="path4722"
     inkscape:connector-curvature="0" />
  <path
     style="fill:#aad400;stroke-width:0.00390625"
     d="m 6.6329259,3.0364892 v -0.03385 h 2.4746094 2.4746097 v 0.03125 0.03125 l -1.8564457,1.4e-6 c -1.0210449,7e-7 -2.1346191,0.00117 -2.4746094,0.0026 l -0.618164,0.0026 z"
     id="path4724"
     inkscape:connector-curvature="0" />
  <path
     style="fill:#aad400;stroke-width:0.00552427"
     d="M 3.0030194,7.1791196 C 3.0049155,4.6237518 3.0023812,4.8251992 3.0349359,4.6420978 3.1611175,3.9323987 3.6786648,3.3350437 4.3659186,3.1058726 4.4980023,3.0618281 4.6132578,3.0360014 4.774767,3.0142573 c 0.061747,-0.00831 0.1636036,-0.00951 0.9626043,-0.011316 l 0.893551,-0.00202 v 0.033274 c 0,0.030078 -0.00119,0.033516 -0.01243,0.03579 -0.00684,0.00138 -0.223733,0.00421 -0.4819927,0.00628 -0.7418015,0.00594 -0.8469177,0.00719 -0.871672,0.010316 -0.012793,0.00162 -0.099081,0.00555 -0.1917503,0.00874 -0.3902618,0.013441 -0.6224393,0.036418 -0.7540631,0.074626 -0.3914886,0.1136414 -0.8684103,0.5506099 -1.091242,0.9998255 -0.064128,0.129278 -0.090813,0.2098727 -0.098773,0.2983107 -0.031764,0.3529404 -0.057433,1.5953399 -0.072189,3.4941018 -0.00308,0.3965046 -0.00715,0.9079831 -0.00904,1.1366189 l -0.00344,0.4157015 h -0.021524 -0.021524 z"
     id="path4726"
     inkscape:connector-curvature="0" />
  <path
     style="fill:#aad400;stroke-width:0.00552427"
     d="M 3.0014758,12.574952 V 9.5145055 h 0.020716 l 0.020716,10e-8 1.502e-4,2.7939004 c 8.26e-5,1.536645 0.00214,2.913846 0.00457,3.060446 l 0.00442,0.266547 H 3.026763 3.001478 Z"
     id="path4728"
     inkscape:connector-curvature="0" />
  <path
     style="fill:#aad400;stroke-width:0.00552427"
     d="M 4.8718539,20.993314 C 4.2761849,20.955367 3.7349211,20.655969 3.3800682,20.168139 3.1630983,19.869862 3.0339159,19.510948 3.0072298,19.132263 c -0.00366,-0.05189 -0.00566,-0.681754 -0.0057,-1.788483 l -5.46e-5,-1.708381 h 0.024859 0.024859 l 4.75e-5,0.183682 c 5.89e-5,0.226531 0.00885,1.1462 0.016496,1.724953 0.014327,1.084975 0.033699,1.773914 0.056,1.9915 0.02503,0.244211 0.2574035,0.612261 0.5531502,0.876118 0.2405221,0.214587 0.5043617,0.372765 0.7747086,0.464455 0.097434,0.03304 0.1364924,0.04074 0.2340154,0.04608 0.2428939,0.01332 1.1812538,0.02619 2.2215234,0.03047 0.4025813,0.0017 0.749989,0.0044 0.772017,0.006 l 0.040051,0.003 v 0.01886 0.01886 L 6.331229,20.998576 c -0.7633853,-4.41e-4 -1.4201048,-0.0028 -1.4593767,-0.0054 z"
     id="path4730"
     inkscape:connector-curvature="0" />
</svg>
